# xmcd
#
# Track frame offsets:
#	150
#	17957
#	31482
#	42753
#	55947
#	68915
#	81213
#	95380
#	107205
#	120413
#	133943
#	145970
#	155655
#	165091
#	176201
#	184176
#	191993
#	201393
#	210938
#	220633
#	230093
#	241650
#	252415
#	264304
#	276920
#	287487
#	302166
#
# Disc length: 4331 seconds
#
# Revision: 0
# Processed by: cddbd v1.5.2PL0 Copyright (c) Steve Scherf et al.
# Submitted via: EasyCDDAExtractor 10.2.0.1
#
DISCID=8f10e91b
DTITLE=Christy Lane - Christmas Classics
DYEAR=1983
DGENRE=Gospel
TTITLE0=The Man From Galilee
TTITLE1=Silent Night
TTITLE2=Away In A Manger
TTITLE3=Pretty Paper
TTITLE4=I'll Be Home For Christmas
TTITLE5=Silver Bells
TTITLE6=White Christmas
TTITLE7=Old Christmas Card
TTITLE8=Blue Christmas
TTITLE9=Shake Me, I Rattle
TTITLE10=A Little Bit Colder
TTITLE11=O Holy Night
TTITLE12=The First Noel
TTITLE13=What Child Is This
TTITLE14=Up On The Housetop
TTITLE15=Jingle Bells
TTITLE16=Jolly Old Saint Nicholas
TTITLE17=Joy To The World
TTITLE18=Hark! The Herald Sing
TTITLE19=God Rest Ye Merry Gentlemen
TTITLE20=O Come All Ye Faithful
TTITLE21=O Little Town Of Bethlehem
TTITLE22=This Is Christmas
TTITLE23=The Son Of God Is Born
TTITLE24=It Came Upon A Midnight Clear
TTITLE25=Do You Hear What I Hear
TTITLE26=His Father's Eyes
EXTD=
EXTT0=
EXTT1=
EXTT2=
EXTT3=
EXTT4=
EXTT5=
EXTT6=
EXTT7=
EXTT8=
EXTT9=
EXTT10=
EXTT11=
EXTT12=
EXTT13=
EXTT14=
EXTT15=
EXTT16=
EXTT17=
EXTT18=
EXTT19=
EXTT20=
EXTT21=
EXTT22=
EXTT23=
EXTT24=
EXTT25=
EXTT26=
PLAYORDER=
